<?xml version="1.0" standalone="no"?>
<!DOCTYPE svg PUBLIC "-//W3C//DTD SVG 20010904//EN"
 "http://www.w3.org/TR/2001/REC-SVG-20010904/DTD/svg10.dtd">
<svg version="1.0" xmlns="http://www.w3.org/2000/svg"
 width="612.000000pt" height="612.000000pt" viewBox="0 0 612.000000 612.000000"
 preserveAspectRatio="xMidYMid meet">

<g transform="translate(0.000000,612.000000) scale(0.100000,-0.100000)"
fill="#000000" stroke="none">
<path d="M3925 5076 c-43 -19 -137 -125 -196 -221 -103 -167 -149 -344 -149
-577 0 -162 5 -212 60 -563 45 -296 50 -335 41 -335 -10 0 -306 299 -301 303
3 3 47 -1 98 -7 51 -7 94 -10 96 -9 1 2 -7 60 -18 130 l-21 127 -35 8 c-19 4
-96 10 -170 14 -344 17 -609 -73 -829 -281 -251 -238 -355 -539 -323 -932 6
-76 29 -250 51 -388 22 -137 43 -279 46 -315 3 -36 8 -85 11 -110 l5 -45 -200
200 c-111 110 -201 203 -201 206 0 7 67 3 189 -12 46 -6 85 -8 88 -6 5 5 -36
249 -43 256 -10 11 -127 19 -271 20 -244 2 -416 -42 -588 -148 -103 -63 -210
-161 -225 -205 -26 -81 35 -166 120 -166 40 0 64 13 119 63 l43 40 399 -399
398 -398 -32 -39 c-53 -64 -67 -90 -67 -127 0 -81 88 -146 164 -120 66 22 201
192 267 336 56 125 81 241 86 414 6 178 -2 262 -56 614 -46 296 -51 336 -42
336 10 0 306 -299 301 -303 -3 -3 -47 1 -97 7 l-93 12 1 -31 c0 -16 8 -75 17
-130 l17 -99 35 -8 c72 -15 305 -20 395 -9 261 32 470 134 642 314 174 182
260 374 285 639 15 151 2 312 -51 643 -39 242 -64 445 -55 455 3 2 96 -87 207
-198 l202 -203 -60 6 c-33 3 -98 11 -144 16 -46 6 -85 8 -87 6 -9 -9 36 -251
48 -258 21 -13 199 -22 342 -16 272 10 482 94 667 264 75 70 89 112 60 178
-15 35 -29 49 -58 61 -59 25 -104 14 -165 -41 l-52 -46 -397 397 -398 398 19
26 c11 15 26 33 35 40 43 36 57 108 31 159 -29 55 -106 82 -161 57z m404 -750
l384 -384 -61 -31 c-61 -31 -203 -71 -252 -71 -36 0 -560 524 -560 560 1 54
31 168 64 237 19 40 36 73 38 73 2 0 176 -173 387 -384z m-870 -868 l233 -233
-6 -80 c-3 -44 -11 -98 -16 -120 -17 -62 -52 -155 -59 -155 -3 0 -173 167
-376 370 -289 289 -367 372 -355 380 48 30 206 67 296 69 l50 1 233 -232z
m-289 -289 l391 -391 -40 -53 c-34 -44 -93 -101 -163 -154 -15 -11 -63 34
-407 379 -243 242 -389 396 -384 403 28 49 188 207 208 207 2 0 180 -176 395
-391z m-288 -286 c203 -203 368 -371 368 -374 0 -12 -143 -58 -210 -69 -146
-22 -117 -39 -378 222 l-232 232 0 51 c0 85 57 305 79 305 3 0 171 -165 373
-367z m-868 -872 l269 -269 -7 -53 c-10 -76 -34 -155 -67 -221 -16 -32 -30
-58 -32 -58 -1 0 -175 173 -386 384 l-384 384 62 31 c63 32 192 69 246 70 26
1 63 -32 299 -268z"/>
</g>
</svg>
